<svg xmlns="http://www.w3.org/2000/svg" width="0" height="0" class="hidden">
<symbol fill="none" xmlns="http://www.w3.org/2000/svg" viewBox="0 0 100 71" id="logo">
    <path d="M16.4671 70.6464C7.38524 70.6464 0 63.2611 0 54.1793C0 45.0974 7.38524 37.7122 16.4671 37.7122C25.549 37.7122 32.9342 45.0974 32.9342 54.1793C32.9342 63.311 25.549 70.6464 16.4671 70.6464Z" fill="currentColor"></path>
    <path d="M16.4671 70.6464C7.38524 70.6464 0 63.2611 0 54.1793C0 45.0974 7.38524 37.7122 16.4671 37.7122C25.549 37.7122 32.9342 45.0974 32.9342 54.1793C32.9342 63.311 25.549 70.6464 16.4671 70.6464Z" fill="currentColor"></path>
    <path d="M55.3895 1.8336L37.5251 31.0253C37.0261 31.8736 37.575 32.9215 38.5232 32.9215H56.3875H74.2518C75.1999 32.9215 75.7488 31.8237 75.2498 31.0253L57.3855 1.8336C56.8865 1.08509 55.8386 1.08509 55.3895 1.8336Z" fill="currentColor"></path>
    <path d="M32.5847 6.77396L26.1475 0.336827C25.6984 -0.112276 24.9 -0.112276 24.4509 0.336827L17.3651 7.42267C16.916 7.87177 16.1176 7.87177 15.6685 7.42267L8.58263 0.336827C8.13353 -0.112276 7.33513 -0.112276 6.88602 0.336827L0.448888 6.77396C-0.000215136 7.22307 -0.000215136 8.02147 0.448888 8.47058L7.53472 15.5564C7.98382 16.0055 7.98382 16.8039 7.53472 17.253L0.448888 24.3389C-0.000215136 24.788 -0.000215136 25.5864 0.448888 26.0355L6.88602 32.4726C7.33513 32.9217 8.13353 32.9217 8.58263 32.4726L15.6685 25.3868C16.1176 24.9377 16.916 24.9377 17.3651 25.3868L24.4509 32.4726C24.9 32.9217 25.6984 32.9217 26.1475 32.4726L32.5847 26.0355C33.0338 25.5864 33.0338 24.788 32.5847 24.3389L25.4988 17.253C25.0497 16.8039 25.0497 16.0055 25.4988 15.5564L32.5847 8.47058C33.0837 8.02147 33.0837 7.27297 32.5847 6.77396Z" fill="currentColor"></path>
    <path d="M40.6685 49.0892V51.185H44.3112V52.6321H40.6685V55.4764H38.8721V47.6421H44.7603V49.0892H40.6685Z" fill="currentColor"></path>
    <path d="M47.2058 54.678C46.607 54.0792 46.2577 53.181 46.2577 52.0333V47.6421H48.0541V51.9335C48.0541 53.3307 48.6529 54.0293 49.8006 54.0293C50.3495 54.0293 50.7986 53.8796 51.098 53.5303C51.3974 53.181 51.5471 52.682 51.5471 51.9335V47.6421H53.3435V52.0333C53.3435 53.181 53.0441 54.0792 52.3954 54.678C51.7966 55.2768 50.8984 55.6261 49.8006 55.6261C48.7028 55.6261 47.8046 55.2768 47.2058 54.678Z" fill="currentColor"></path>
    <path d="M56.9361 49.1391H54.441V47.6421H61.2275V49.1391H58.7325V55.4764H56.9361V49.1391Z" fill="currentColor"></path>
    <path d="M63.2733 54.678C62.6745 54.0792 62.3252 53.181 62.3252 52.0333V47.6421H64.1216V51.9335C64.1216 53.3307 64.7204 54.0293 65.8681 54.0293C66.417 54.0293 66.8661 53.8796 67.1655 53.5303C67.4649 53.181 67.6146 52.682 67.6146 51.9335V47.6421H69.411V52.0333C69.411 53.181 69.1116 54.0792 68.4629 54.678C67.8641 55.2768 66.9659 55.6261 65.8681 55.6261C64.7703 55.6261 63.922 55.2768 63.2733 54.678Z" fill="currentColor"></path>
    <path d="M76.4971 55.4768L75.0001 53.2812H74.9003H73.3035V55.4768H71.5071V47.6924H74.9003C75.5989 47.6924 76.1977 47.7922 76.6967 48.0417C77.1957 48.2912 77.5949 48.5906 77.8943 49.0397C78.1438 49.4389 78.2935 49.9878 78.2935 50.5367C78.2935 51.1355 78.1438 51.6345 77.8943 52.0337C77.5949 52.4329 77.1957 52.7822 76.6967 52.9818L78.4432 55.4768H76.4971ZM76.048 49.4888C75.7486 49.2393 75.3494 49.1395 74.8005 49.1395H73.3035V51.884H74.8005C75.3494 51.884 75.7486 51.7842 76.048 51.5347C76.3474 51.2852 76.4472 50.9858 76.4472 50.5367C76.4971 50.0377 76.3474 49.7383 76.048 49.4888Z" fill="currentColor"></path>
    <path d="M86.1279 54.0293V55.4764H80.09V47.6421H85.9782V49.0892H81.8864V50.7858H85.4792V52.2329H81.8864V54.0293H86.1279Z" fill="currentColor"></path>
    <path d="M44.012 68.2512H40.3693L39.6707 69.9478H37.8243L41.3174 62.1633H43.1138L46.6068 69.9478H44.7106L44.012 68.2512ZM43.4631 66.9039L42.2156 63.9098L40.9681 66.9039H43.4631Z" fill="currentColor"></path>
    <path d="M49.2017 69.5485C48.553 69.1992 48.054 68.7002 47.7047 68.1014C47.3554 67.5026 47.1558 66.804 47.1558 66.0056C47.1558 65.257 47.3554 64.5584 47.7047 63.9097C48.054 63.3109 48.6029 62.8119 49.2017 62.4626C49.8504 62.1133 50.549 61.9636 51.3474 61.9636C52.046 61.9636 52.6448 62.0634 53.1937 62.3129C53.7426 62.5624 54.1917 62.9117 54.5909 63.3608L53.4432 64.4087C52.8943 63.8099 52.2456 63.5105 51.4971 63.5105C50.9981 63.5105 50.5989 63.6103 50.1997 63.8099C49.8005 64.0095 49.5011 64.3089 49.3015 64.7081C49.1019 65.1073 49.0021 65.5065 49.0021 66.0056C49.0021 66.5046 49.1019 66.9038 49.3015 67.303C49.5011 67.7022 49.8005 68.0016 50.1997 68.2012C50.5989 68.4008 50.9981 68.5006 51.4971 68.5006C52.2955 68.5006 52.9442 68.2012 53.4432 67.5525L54.5909 68.6004C54.2416 69.0495 53.7426 69.3988 53.1937 69.6483C52.6448 69.8978 52.046 69.9976 51.3474 69.9976C50.5989 70.0475 49.8504 69.8978 49.2017 69.5485Z" fill="currentColor"></path>
    <path d="M61.1277 68.2512H57.485L56.7864 69.9478H54.9401L58.4331 62.1633H60.2295L63.7225 69.9478H61.8263L61.1277 68.2512ZM60.5788 66.9039L59.3313 63.9098L58.0838 66.9039H60.5788Z" fill="currentColor"></path>
    <path d="M64.8704 62.1133H68.4133C69.2616 62.1133 70.0101 62.263 70.6588 62.6123C71.3075 62.9117 71.8065 63.4107 72.1558 63.9596C72.5051 64.5584 72.7047 65.2071 72.7047 66.0055C72.7047 66.8039 72.5051 67.4526 72.1558 68.0514C71.8065 68.6502 71.3075 69.0993 70.6588 69.3987C70.0101 69.6981 69.2616 69.8977 68.4133 69.8977H64.8704V62.1133ZM68.3135 68.4506C69.1119 68.4506 69.7107 68.251 70.1598 67.8019C70.6089 67.3528 70.8584 66.754 70.8584 66.0554C70.8584 65.3069 70.6089 64.7081 70.1598 64.3089C69.7107 63.8598 69.062 63.6602 68.3135 63.6602H66.6668V68.5005H68.3135V68.4506Z" fill="currentColor"></path>
    <path d="M80.4391 68.5005V69.9476H74.4011V62.1133H80.2894V63.5604H76.1975V65.257H79.8403V66.6542H76.1975V68.5005H80.4391Z" fill="currentColor"></path>
    <path d="M89.3214 69.9476V65.257L87.026 69.0993H86.2276L83.9322 65.3568V69.9476H82.2356V62.1133H83.7326L86.6268 66.9536L89.521 62.1133H91.0181V69.9476H89.3214Z" fill="currentColor"></path>
    <path d="M96.9561 67.1532V69.9476H95.1596V67.1532L92.1157 62.1133H94.0618L96.1577 65.6063L98.2036 62.1133H100L96.9561 67.1532Z" fill="currentColor"></path>
  </symbol>
  <symbol fill="none" viewBox="0 0 20 16" id="categories">
    <rect x="1" y="1" width="18" height="4.99717" rx="1" stroke="currentColor" stroke-width="2"></rect>
    <rect x="1" y="9.97192" width="18" height="5" rx="1" stroke="currentColor" stroke-width="2"></rect>
  </symbol>
  <symbol fill="none" viewBox="0 0 17 20" id="pin">
    <path d="M16 8.5C16 11.3282 14.13 13.9545 12.0535 15.9699C11.036 16.9575 10.0146 17.754 9.24613 18.304C8.95504 18.5123 8.70155 18.6843 8.5 18.8171C8.29845 18.6843 8.04496 18.5123 7.75387 18.304C6.98537 17.754 5.96395 16.9575 4.94648 15.9699C2.86999 13.9545 1 11.3282 1 8.5C1 4.35786 4.35786 1 8.5 1C12.6421 1 16 4.35786 16 8.5Z" stroke="currentColor" stroke-width="2"></path>
    <circle cx="8.5" cy="7.5" r="2.5" fill="currentColor"></circle>
  </symbol>
   <symbol fill="none" viewBox="0 0 10 7" id="arrow">
    <path fill-rule="evenodd" clip-rule="evenodd" d="M0.292893 0.292893C0.683417 -0.0976311 1.31658 -0.0976311 1.70711 0.292893L5 3.58579L8.29289 0.292893C8.68342 -0.0976311 9.31658 -0.0976311 9.70711 0.292893C10.0976 0.683417 10.0976 1.31658 9.70711 1.70711L5 6.41421L0.292893 1.70711C-0.0976311 1.31658 -0.0976311 0.683417 0.292893 0.292893Z" fill="currentColor"></path>
  </symbol>
  <symbol fill="none" viewBox="0 0 12 12" id="close">
    <path fill-rule="evenodd" clip-rule="evenodd" d="M0.292893 0.292893C0.683417 -0.0976311 1.31658 -0.0976311 1.70711 0.292893L11.7071 10.2929C12.0976 10.6834 12.0976 11.3166 11.7071 11.7071C11.3166 12.0976 10.6834 12.0976 10.2929 11.7071L0.292893 1.70711C-0.0976311 1.31658 -0.0976311 0.683417 0.292893 0.292893Z" fill="currentColor"></path>
    <path fill-rule="evenodd" clip-rule="evenodd" d="M11.7071 0.292893C11.3166 -0.0976311 10.6834 -0.0976311 10.2929 0.292893L0.292893 10.2929C-0.0976315 10.6834 -0.0976315 11.3166 0.292893 11.7071C0.683417 12.0976 1.31658 12.0976 1.70711 11.7071L11.7071 1.70711C12.0976 1.31658 12.0976 0.683417 11.7071 0.292893Z" fill="currentColor"></path>
  </symbol>
  <symbol fill="none" viewBox="0 0 18 19" id="user">
    <rect x="5.18018" y="1" width="6.63833" height="8.41108" rx="3.31917" stroke="currentColor" stroke-width="2"></rect>
    <path d="M1 15.4111C1 13.7543 2.34315 12.4111 4 12.4111H13.2795C14.9364 12.4111 16.2795 13.7543 16.2795 15.4111V16.3229C16.2795 16.8752 15.8318 17.3229 15.2795 17.3229H2C1.44772 17.3229 1 16.8752 1 16.3229V15.4111Z" stroke="currentColor" stroke-width="2"></path>
  </symbol>
  <symbol fill="none" viewBox="0 0 20 12" id="vk">
    <path d="M19.1602 1.39844C19.0898 1.75 18.8086 2.32422 18.3164 3.12109C17.8477 3.91797 17.4141 4.62109 17.0156 5.23047C16.6172 5.81641 16.4062 6.12109 16.3828 6.14453C16.2422 6.35547 16.1719 6.50781 16.1719 6.60156C16.1719 6.69531 16.2422 6.85938 16.3828 7.09375C16.3828 7.09375 16.4531 7.17578 16.5938 7.33984C16.7578 7.50391 16.9453 7.69141 17.1562 7.90234C17.3672 8.11328 17.6016 8.35938 17.8594 8.64062C18.1172 8.92188 18.3516 9.20312 18.5625 9.48438C18.7969 9.74219 18.9961 10.0117 19.1602 10.293C19.3477 10.5742 19.4766 10.8086 19.5469 10.9961C19.7109 11.582 19.4766 11.875 18.8438 11.875H16.7695C16.6055 11.875 16.4648 11.8516 16.3477 11.8047C16.2305 11.7578 16.1016 11.6758 15.9609 11.5586C15.8203 11.4414 15.6914 11.3125 15.5742 11.1719C15.457 11.0312 15.2812 10.832 15.0469 10.5742C14.8125 10.3164 14.5781 10.0703 14.3438 9.83594C13.4062 8.94531 12.7148 8.5 12.2695 8.5C11.9883 8.5 11.8242 8.58203 11.7773 8.74609C11.7305 8.91016 11.707 9.37891 11.707 10.1523C11.7305 10.5273 11.7422 10.832 11.7422 11.0664C11.7422 11.3477 11.6484 11.5586 11.4609 11.6992C11.2734 11.8164 10.8633 11.875 10.2305 11.875C9.12891 11.875 8.01562 11.5469 6.89062 10.8906C5.76562 10.2344 4.78125 9.29688 3.9375 8.07812C3.14062 7 2.47266 5.93359 1.93359 4.87891C1.41797 3.80078 1.07812 2.98047 0.914062 2.41797C0.75 1.85547 0.667969 1.45703 0.667969 1.22266C0.667969 0.824219 0.902344 0.625 1.37109 0.625H3.44531C3.70312 0.625 3.89062 0.683594 4.00781 0.800781C4.14844 0.917969 4.26562 1.12891 4.35938 1.43359C4.85156 2.86328 5.44922 4.14062 6.15234 5.26562C6.87891 6.39062 7.42969 6.95312 7.80469 6.95312C7.94531 6.95312 8.03906 6.90625 8.08594 6.8125C8.15625 6.69531 8.19141 6.48438 8.19141 6.17969V3.12109C8.16797 2.79297 8.10938 2.51172 8.01562 2.27734C7.92188 2.04297 7.82812 1.87891 7.73438 1.78516C7.64062 1.66797 7.54688 1.55078 7.45312 1.43359C7.38281 1.31641 7.34766 1.21094 7.34766 1.11719C7.34766 1.02344 7.37109 0.941406 7.41797 0.871094C7.46484 0.800781 7.52344 0.742188 7.59375 0.695312C7.6875 0.648438 7.78125 0.625 7.875 0.625H11.1445C11.5195 0.625 11.707 0.882812 11.707 1.39844V5.47656C11.707 5.875 11.8125 6.07422 12.0234 6.07422C12.2578 6.07422 12.5859 5.86328 13.0078 5.44141C13.4531 4.94922 13.8867 4.35156 14.3086 3.64844C14.7305 2.94531 15.0469 2.35938 15.2578 1.89062L15.5742 1.22266C15.7383 0.824219 16.0312 0.625 16.4531 0.625H18.5273C19.0898 0.625 19.3008 0.882812 19.1602 1.39844Z" fill="currentColor"></path>
  </symbol>
  <symbol fill="none" viewBox="0 0 16 17" id="instagram">
    <path d="M5.02734 5.40234C5.82422 4.60547 6.78516 4.20703 7.91016 4.20703C9.03516 4.20703 9.98438 4.60547 10.7578 5.40234C11.5547 6.17578 11.9531 7.125 11.9531 8.25C11.9531 9.375 11.5547 10.3359 10.7578 11.1328C9.98438 11.9062 9.03516 12.293 7.91016 12.293C6.78516 12.293 5.82422 11.9062 5.02734 11.1328C4.25391 10.3359 3.86719 9.375 3.86719 8.25C3.86719 7.125 4.25391 6.17578 5.02734 5.40234ZM6.04688 10.1133C6.5625 10.6289 7.18359 10.8867 7.91016 10.8867C8.63672 10.8867 9.25781 10.6289 9.77344 10.1133C10.2891 9.59766 10.5469 8.97656 10.5469 8.25C10.5469 7.52344 10.2891 6.90234 9.77344 6.38672C9.25781 5.87109 8.63672 5.61328 7.91016 5.61328C7.18359 5.61328 6.5625 5.87109 6.04688 6.38672C5.53125 6.90234 5.27344 7.52344 5.27344 8.25C5.27344 8.97656 5.53125 9.59766 6.04688 10.1133ZM12.7617 3.39844C12.9492 3.5625 13.043 3.77344 13.043 4.03125C13.043 4.28906 12.9492 4.51172 12.7617 4.69922C12.5977 4.88672 12.3867 4.98047 12.1289 4.98047C11.8711 4.98047 11.6484 4.88672 11.4609 4.69922C11.2734 4.51172 11.1797 4.28906 11.1797 4.03125C11.1797 3.77344 11.2734 3.5625 11.4609 3.39844C11.6484 3.21094 11.8711 3.11719 12.1289 3.11719C12.3867 3.11719 12.5977 3.21094 12.7617 3.39844ZM15.75 5.01562C15.7734 5.64844 15.7852 6.72656 15.7852 8.25C15.7852 9.77344 15.7734 10.8516 15.75 11.4844C15.6797 12.9141 15.2461 14.0273 14.4492 14.8242C13.6758 15.5977 12.5742 16.0078 11.1445 16.0547C10.5117 16.1016 9.43359 16.125 7.91016 16.125C6.38672 16.125 5.30859 16.1016 4.67578 16.0547C3.24609 15.9844 2.14453 15.5625 1.37109 14.7891C1.06641 14.5078 0.820312 14.1797 0.632812 13.8047C0.445312 13.4297 0.304688 13.0664 0.210938 12.7148C0.140625 12.3633 0.105469 11.9531 0.105469 11.4844C0.0585938 10.8516 0.0351562 9.77344 0.0351562 8.25C0.0351562 6.72656 0.0585938 5.63672 0.105469 4.98047C0.175781 3.57422 0.597656 2.48438 1.37109 1.71094C2.14453 0.914062 3.24609 0.480469 4.67578 0.410156C5.30859 0.386719 6.38672 0.375 7.91016 0.375C9.43359 0.375 10.5117 0.386719 11.1445 0.410156C12.5742 0.480469 13.6758 0.914062 14.4492 1.71094C15.2461 2.48438 15.6797 3.58594 15.75 5.01562ZM14.0625 12.8906C14.1328 12.7031 14.1914 12.4688 14.2383 12.1875C14.2852 11.8828 14.3203 11.5312 14.3438 11.1328C14.3672 10.7109 14.3789 10.3711 14.3789 10.1133C14.3789 9.85547 14.3789 9.49219 14.3789 9.02344C14.3789 8.55469 14.3789 8.29688 14.3789 8.25C14.3789 8.17969 14.3789 7.92188 14.3789 7.47656C14.3789 7.00781 14.3789 6.64453 14.3789 6.38672C14.3789 6.12891 14.3672 5.80078 14.3438 5.40234C14.3203 4.98047 14.2852 4.62891 14.2383 4.34766C14.1914 4.04297 14.1328 3.79688 14.0625 3.60938C13.7812 2.88281 13.2773 2.37891 12.5508 2.09766C12.3633 2.02734 12.1172 1.96875 11.8125 1.92188C11.5312 1.875 11.1797 1.83984 10.7578 1.81641C10.3594 1.79297 10.0312 1.78125 9.77344 1.78125C9.53906 1.78125 9.17578 1.78125 8.68359 1.78125C8.21484 1.78125 7.95703 1.78125 7.91016 1.78125C7.86328 1.78125 7.60547 1.78125 7.13672 1.78125C6.66797 1.78125 6.30469 1.78125 6.04688 1.78125C5.78906 1.78125 5.44922 1.79297 5.02734 1.81641C4.62891 1.83984 4.27734 1.875 3.97266 1.92188C3.69141 1.96875 3.45703 2.02734 3.26953 2.09766C2.54297 2.37891 2.03906 2.88281 1.75781 3.60938C1.6875 3.79688 1.62891 4.04297 1.58203 4.34766C1.53516 4.62891 1.5 4.98047 1.47656 5.40234C1.45312 5.80078 1.44141 6.12891 1.44141 6.38672C1.44141 6.62109 1.44141 6.98438 1.44141 7.47656C1.44141 7.94531 1.44141 8.20312 1.44141 8.25C1.44141 8.34375 1.44141 8.56641 1.44141 8.91797C1.44141 9.24609 1.44141 9.52734 1.44141 9.76172C1.44141 9.97266 1.44141 10.2539 1.44141 10.6055C1.46484 10.957 1.48828 11.2617 1.51172 11.5195C1.53516 11.7539 1.57031 12 1.61719 12.2578C1.66406 12.5156 1.71094 12.7266 1.75781 12.8906C2.0625 13.6172 2.56641 14.1211 3.26953 14.4023C3.45703 14.4727 3.69141 14.5312 3.97266 14.5781C4.27734 14.625 4.62891 14.6602 5.02734 14.6836C5.44922 14.707 5.77734 14.7188 6.01172 14.7188C6.26953 14.7188 6.63281 14.7188 7.10156 14.7188C7.59375 14.7188 7.86328 14.7188 7.91016 14.7188C7.98047 14.7188 8.23828 14.7188 8.68359 14.7188C9.15234 14.7188 9.51562 14.7188 9.77344 14.7188C10.0312 14.7188 10.3594 14.707 10.7578 14.6836C11.1797 14.6602 11.5312 14.625 11.8125 14.5781C12.1172 14.5312 12.3633 14.4727 12.5508 14.4023C13.2773 14.0977 13.7812 13.5938 14.0625 12.8906Z" fill="currentColor"></path>
  </symbol>
  <symbol fill="none" viewBox="0 0 18 18" id="facebook">
    <path d="M17.7188 9.25C17.7188 11.4062 17.0156 13.3047 15.6094 14.9453C14.2031 16.5625 12.457 17.5352 10.3711 17.8633V11.7812H12.4102L12.7969 9.25H10.3711V7.59766C10.3711 6.70703 10.8398 6.26172 11.7773 6.26172H12.8672V4.11719C12.2109 4 11.5664 3.94141 10.9336 3.94141C10.2539 3.94141 9.66797 4.07031 9.17578 4.32812C8.70703 4.58594 8.33203 4.97266 8.05078 5.48828C7.76953 6.00391 7.62891 6.61328 7.62891 7.31641V9.25H5.41406V11.7812H7.62891V17.8633C5.54297 17.5352 3.79688 16.5625 2.39062 14.9453C0.984375 13.3047 0.28125 11.4062 0.28125 9.25C0.28125 6.83594 1.125 4.78516 2.8125 3.09766C4.52344 1.38672 6.58594 0.53125 9 0.53125C11.4141 0.53125 13.4648 1.38672 15.1523 3.09766C16.8633 4.78516 17.7188 6.83594 17.7188 9.25Z" fill="currentColor"></path>
  </symbol>
  <symbol fill="none" viewBox="0 0 20 14" id="youtube">
    <path d="M19.3359 2.60938C19.4062 2.89062 19.4648 3.24219 19.5117 3.66406C19.582 4.08594 19.6289 4.50781 19.6523 4.92969C19.6758 5.32812 19.6875 5.70312 19.6875 6.05469C19.7109 6.40625 19.7227 6.69922 19.7227 6.93359V7.25C19.7227 9.35938 19.5938 10.918 19.3359 11.9258C19.2188 12.3242 19.0078 12.6758 18.7031 12.9805C18.3984 13.2852 18.0352 13.4961 17.6133 13.6133C17.168 13.7305 16.3242 13.8242 15.082 13.8945C13.8398 13.9414 12.7031 13.9766 11.6719 14H10.125C6.11719 14 3.62109 13.8711 2.63672 13.6133C1.72266 13.3555 1.14844 12.793 0.914062 11.9258C0.796875 11.4805 0.703125 10.8711 0.632812 10.0977C0.585938 9.30078 0.550781 8.63281 0.527344 8.09375V7.25C0.527344 5.16406 0.65625 3.61719 0.914062 2.60938C1.03125 2.1875 1.24219 1.82422 1.54688 1.51953C1.85156 1.21484 2.21484 1.00391 2.63672 0.886719C3.08203 0.769531 3.92578 0.6875 5.16797 0.640625C6.41016 0.570312 7.54688 0.523438 8.57812 0.5H10.125C14.1328 0.5 16.6289 0.628906 17.6133 0.886719C18.0352 1.00391 18.3984 1.21484 18.7031 1.51953C19.0078 1.82422 19.2188 2.1875 19.3359 2.60938ZM8.15625 10.1328L13.1836 7.25L8.15625 4.40234V10.1328Z" fill="currentColor"></path>
  </symbol>
   <symbol fill="none" viewBox="0 0 16 14" id="telegram">
    <path d="M15.75 1.7305L13.3594 12.9102C13.1719 13.7071 12.7383 13.918 12.0586 13.543L8.4375 10.8711L6.67969 12.5586C6.44531 12.793 6.19922 12.9102 5.94141 12.9102L6.22266 9.21879L12.9375 3.17191C13.1016 3.00785 13.1016 2.9141 12.9375 2.89066C12.7969 2.84378 12.6445 2.87894 12.4805 2.99613L4.18359 8.23441L0.597656 7.10941C0.199219 6.99222 0.0117188 6.81644 0.0351562 6.58207C0.0585938 6.34769 0.304688 6.14847 0.773438 5.98441L14.7305 0.570347C15.082 0.45316 15.3633 0.500035 15.5742 0.710972C15.7852 0.898472 15.8438 1.23832 15.75 1.7305Z" fill="currentColor"></path>
  </symbol>

  <symbol id="btnArrow" viewBox="0 0 9 13" fill="none">
    <path d="M1 0.996582L6.80762 6.56201L1 11.9655" stroke="black" stroke-width="2" stroke-linecap="round"/>
  </symbol>
</svg>


<svg width="0" height="0" class="hidden">
  <symbol fill="none" xmlns="http://www.w3.org/2000/svg" viewBox="0 0 100 71" id="Group 1">
    <path d="M16.4671 70.6464C7.38524 70.6464 0 63.2611 0 54.1793C0 45.0974 7.38524 37.7122 16.4671 37.7122C25.549 37.7122 32.9342 45.0974 32.9342 54.1793C32.9342 63.311 25.549 70.6464 16.4671 70.6464Z" fill="#00093C"></path>
    <path d="M16.4671 70.6464C7.38524 70.6464 0 63.2611 0 54.1793C0 45.0974 7.38524 37.7122 16.4671 37.7122C25.549 37.7122 32.9342 45.0974 32.9342 54.1793C32.9342 63.311 25.549 70.6464 16.4671 70.6464Z" fill="#00093C"></path>
    <path d="M55.3895 1.8336L37.5251 31.0253C37.0261 31.8736 37.575 32.9215 38.5232 32.9215H56.3875H74.2518C75.1999 32.9215 75.7488 31.8237 75.2498 31.0253L57.3855 1.8336C56.8865 1.08509 55.8386 1.08509 55.3895 1.8336Z" fill="#00093C"></path>
    <path d="M32.5847 6.77396L26.1475 0.336827C25.6984 -0.112276 24.9 -0.112276 24.4509 0.336827L17.3651 7.42267C16.916 7.87177 16.1176 7.87177 15.6685 7.42267L8.58263 0.336827C8.13353 -0.112276 7.33513 -0.112276 6.88602 0.336827L0.448888 6.77396C-0.000215136 7.22307 -0.000215136 8.02147 0.448888 8.47058L7.53472 15.5564C7.98382 16.0055 7.98382 16.8039 7.53472 17.253L0.448888 24.3389C-0.000215136 24.788 -0.000215136 25.5864 0.448888 26.0355L6.88602 32.4726C7.33513 32.9217 8.13353 32.9217 8.58263 32.4726L15.6685 25.3868C16.1176 24.9377 16.916 24.9377 17.3651 25.3868L24.4509 32.4726C24.9 32.9217 25.6984 32.9217 26.1475 32.4726L32.5847 26.0355C33.0338 25.5864 33.0338 24.788 32.5847 24.3389L25.4988 17.253C25.0497 16.8039 25.0497 16.0055 25.4988 15.5564L32.5847 8.47058C33.0837 8.02147 33.0837 7.27297 32.5847 6.77396Z" fill="#00093C"></path>
    <path d="M40.6685 49.0892V51.185H44.3112V52.6321H40.6685V55.4764H38.8721V47.6421H44.7603V49.0892H40.6685Z" fill="black"></path>
    <path d="M47.2058 54.678C46.607 54.0792 46.2577 53.181 46.2577 52.0333V47.6421H48.0541V51.9335C48.0541 53.3307 48.6529 54.0293 49.8006 54.0293C50.3495 54.0293 50.7986 53.8796 51.098 53.5303C51.3974 53.181 51.5471 52.682 51.5471 51.9335V47.6421H53.3435V52.0333C53.3435 53.181 53.0441 54.0792 52.3954 54.678C51.7966 55.2768 50.8984 55.6261 49.8006 55.6261C48.7028 55.6261 47.8046 55.2768 47.2058 54.678Z" fill="black"></path>
    <path d="M56.9361 49.1391H54.441V47.6421H61.2275V49.1391H58.7325V55.4764H56.9361V49.1391Z" fill="black"></path>
    <path d="M63.2733 54.678C62.6745 54.0792 62.3252 53.181 62.3252 52.0333V47.6421H64.1216V51.9335C64.1216 53.3307 64.7204 54.0293 65.8681 54.0293C66.417 54.0293 66.8661 53.8796 67.1655 53.5303C67.4649 53.181 67.6146 52.682 67.6146 51.9335V47.6421H69.411V52.0333C69.411 53.181 69.1116 54.0792 68.4629 54.678C67.8641 55.2768 66.9659 55.6261 65.8681 55.6261C64.7703 55.6261 63.922 55.2768 63.2733 54.678Z" fill="black"></path>
    <path d="M76.4971 55.4768L75.0001 53.2812H74.9003H73.3035V55.4768H71.5071V47.6924H74.9003C75.5989 47.6924 76.1977 47.7922 76.6967 48.0417C77.1957 48.2912 77.5949 48.5906 77.8943 49.0397C78.1438 49.4389 78.2935 49.9878 78.2935 50.5367C78.2935 51.1355 78.1438 51.6345 77.8943 52.0337C77.5949 52.4329 77.1957 52.7822 76.6967 52.9818L78.4432 55.4768H76.4971ZM76.048 49.4888C75.7486 49.2393 75.3494 49.1395 74.8005 49.1395H73.3035V51.884H74.8005C75.3494 51.884 75.7486 51.7842 76.048 51.5347C76.3474 51.2852 76.4472 50.9858 76.4472 50.5367C76.4971 50.0377 76.3474 49.7383 76.048 49.4888Z" fill="black"></path>
    <path d="M86.1279 54.0293V55.4764H80.09V47.6421H85.9782V49.0892H81.8864V50.7858H85.4792V52.2329H81.8864V54.0293H86.1279Z" fill="black"></path>
    <path d="M44.012 68.2512H40.3693L39.6707 69.9478H37.8243L41.3174 62.1633H43.1138L46.6068 69.9478H44.7106L44.012 68.2512ZM43.4631 66.9039L42.2156 63.9098L40.9681 66.9039H43.4631Z" fill="black"></path>
    <path d="M49.2017 69.5485C48.553 69.1992 48.054 68.7002 47.7047 68.1014C47.3554 67.5026 47.1558 66.804 47.1558 66.0056C47.1558 65.257 47.3554 64.5584 47.7047 63.9097C48.054 63.3109 48.6029 62.8119 49.2017 62.4626C49.8504 62.1133 50.549 61.9636 51.3474 61.9636C52.046 61.9636 52.6448 62.0634 53.1937 62.3129C53.7426 62.5624 54.1917 62.9117 54.5909 63.3608L53.4432 64.4087C52.8943 63.8099 52.2456 63.5105 51.4971 63.5105C50.9981 63.5105 50.5989 63.6103 50.1997 63.8099C49.8005 64.0095 49.5011 64.3089 49.3015 64.7081C49.1019 65.1073 49.0021 65.5065 49.0021 66.0056C49.0021 66.5046 49.1019 66.9038 49.3015 67.303C49.5011 67.7022 49.8005 68.0016 50.1997 68.2012C50.5989 68.4008 50.9981 68.5006 51.4971 68.5006C52.2955 68.5006 52.9442 68.2012 53.4432 67.5525L54.5909 68.6004C54.2416 69.0495 53.7426 69.3988 53.1937 69.6483C52.6448 69.8978 52.046 69.9976 51.3474 69.9976C50.5989 70.0475 49.8504 69.8978 49.2017 69.5485Z" fill="black"></path>
    <path d="M61.1277 68.2512H57.485L56.7864 69.9478H54.9401L58.4331 62.1633H60.2295L63.7225 69.9478H61.8263L61.1277 68.2512ZM60.5788 66.9039L59.3313 63.9098L58.0838 66.9039H60.5788Z" fill="black"></path>
    <path d="M64.8704 62.1133H68.4133C69.2616 62.1133 70.0101 62.263 70.6588 62.6123C71.3075 62.9117 71.8065 63.4107 72.1558 63.9596C72.5051 64.5584 72.7047 65.2071 72.7047 66.0055C72.7047 66.8039 72.5051 67.4526 72.1558 68.0514C71.8065 68.6502 71.3075 69.0993 70.6588 69.3987C70.0101 69.6981 69.2616 69.8977 68.4133 69.8977H64.8704V62.1133ZM68.3135 68.4506C69.1119 68.4506 69.7107 68.251 70.1598 67.8019C70.6089 67.3528 70.8584 66.754 70.8584 66.0554C70.8584 65.3069 70.6089 64.7081 70.1598 64.3089C69.7107 63.8598 69.062 63.6602 68.3135 63.6602H66.6668V68.5005H68.3135V68.4506Z" fill="black"></path>
    <path d="M80.4391 68.5005V69.9476H74.4011V62.1133H80.2894V63.5604H76.1975V65.257H79.8403V66.6542H76.1975V68.5005H80.4391Z" fill="black"></path>
    <path d="M89.3214 69.9476V65.257L87.026 69.0993H86.2276L83.9322 65.3568V69.9476H82.2356V62.1133H83.7326L86.6268 66.9536L89.521 62.1133H91.0181V69.9476H89.3214Z" fill="black"></path>
    <path d="M96.9561 67.1532V69.9476H95.1596V67.1532L92.1157 62.1133H94.0618L96.1577 65.6063L98.2036 62.1133H100L96.9561 67.1532Z" fill="black"></path>
  </symbol>
</svg>
